<svg width="6" height="12" viewBox="0 0 6 12" fill="none" xmlns="http://www.w3.org/2000/svg">
<path d="M0.16124 1.01176C0.109735 0.954507 0.069469 0.887163 0.0427423 0.813569C0.0160155 0.739975 0.00335026 0.661572 0.00547123 0.582837C0.00759172 0.504102 0.0244555 0.426576 0.0551009 0.354687C0.0857458 0.282798 0.129571 0.217952 0.184076 0.163853C0.23858 0.109754 0.302695 0.0674608 0.372761 0.039388C0.442826 0.0113152 0.517469 -0.00198744 0.59243 0.00023986C0.667389 0.00246716 0.741198 0.0201807 0.80964 0.052369C0.878083 0.0845573 0.939819 0.13059 0.991324 0.187839L5.84395 5.58467C5.94416 5.69601 6 5.84341 6 5.99663C6 6.14985 5.94416 6.29725 5.84395 6.40859L0.991324 11.806C0.940159 11.8645 0.878436 11.9118 0.809742 11.945C0.741048 11.9782 0.666751 11.9968 0.591168 11.9996C0.515584 12.0024 0.44022 11.9895 0.369453 11.9614C0.298687 11.9334 0.233928 11.8909 0.178939 11.8363C0.12395 11.7818 0.0798268 11.7163 0.0491314 11.6437C0.0184364 11.5711 0.00178242 11.4928 0.000135422 11.4134C-0.0015111 11.334 0.0118823 11.255 0.0395389 11.1811C0.0671954 11.1071 0.108563 11.0397 0.16124 10.9827L4.64392 5.99663L0.16124 1.01176Z" fill="#181C32"/>
</svg>
