<svg width="27" height="27" viewBox="0 0 27 27" fill="none" xmlns="http://www.w3.org/2000/svg">
<path d="M16 8H17.3333C17.687 8 18.0261 7.85952 18.2761 7.60948C18.5262 7.35943 18.6667 7.02029 18.6667 6.66667C18.6667 6.31304 18.5262 5.97391 18.2761 5.72386C18.0261 5.47381 17.687 5.33333 17.3333 5.33333H16C15.6464 5.33333 15.3072 5.47381 15.0572 5.72386C14.8071 5.97391 14.6667 6.31304 14.6667 6.66667C14.6667 7.02029 14.8071 7.35943 15.0572 7.60948C15.3072 7.85952 15.6464 8 16 8ZM16 13.3333H17.3333C17.687 13.3333 18.0261 13.1929 18.2761 12.9428C18.5262 12.6928 18.6667 12.3536 18.6667 12C18.6667 11.6464 18.5262 11.3072 18.2761 11.0572C18.0261 10.8071 17.687 10.6667 17.3333 10.6667H16C15.6464 10.6667 15.3072 10.8071 15.0572 11.0572C14.8071 11.3072 14.6667 11.6464 14.6667 12C14.6667 12.3536 14.8071 12.6928 15.0572 12.9428C15.3072 13.1929 15.6464 13.3333 16 13.3333ZM9.33333 8H10.6667C11.0203 8 11.3594 7.85952 11.6095 7.60948C11.8595 7.35943 12 7.02029 12 6.66667C12 6.31304 11.8595 5.97391 11.6095 5.72386C11.3594 5.47381 11.0203 5.33333 10.6667 5.33333H9.33333C8.97971 5.33333 8.64057 5.47381 8.39052 5.72386C8.14048 5.97391 8 6.31304 8 6.66667C8 7.02029 8.14048 7.35943 8.39052 7.60948C8.64057 7.85952 8.97971 8 9.33333 8ZM9.33333 13.3333H10.6667C11.0203 13.3333 11.3594 13.1929 11.6095 12.9428C11.8595 12.6928 12 12.3536 12 12C12 11.6464 11.8595 11.3072 11.6095 11.0572C11.3594 10.8071 11.0203 10.6667 10.6667 10.6667H9.33333C8.97971 10.6667 8.64057 10.8071 8.39052 11.0572C8.14048 11.3072 8 11.6464 8 12C8 12.3536 8.14048 12.6928 8.39052 12.9428C8.64057 13.1929 8.97971 13.3333 9.33333 13.3333ZM25.3333 24H24V1.33333C24 0.979711 23.8595 0.640573 23.6095 0.390524C23.3594 0.140476 23.0203 0 22.6667 0H4C3.64638 0 3.30724 0.140476 3.05719 0.390524C2.80714 0.640573 2.66667 0.979711 2.66667 1.33333V24H1.33333C0.979711 24 0.640573 24.1405 0.390524 24.3905C0.140476 24.6406 0 24.9797 0 25.3333C0 25.687 0.140476 26.0261 0.390524 26.2761C0.640573 26.5262 0.979711 26.6667 1.33333 26.6667H25.3333C25.687 26.6667 26.0261 26.5262 26.2761 26.2761C26.5262 26.0261 26.6667 25.687 26.6667 25.3333C26.6667 24.9797 26.5262 24.6406 26.2761 24.3905C26.0261 24.1405 25.687 24 25.3333 24ZM14.6667 24H12V18.6667H14.6667V24ZM21.3333 24H17.3333V17.3333C17.3333 16.9797 17.1929 16.6406 16.9428 16.3905C16.6928 16.1405 16.3536 16 16 16H10.6667C10.313 16 9.97391 16.1405 9.72386 16.3905C9.47381 16.6406 9.33333 16.9797 9.33333 17.3333V24H5.33333V2.66667H21.3333V24Z" fill="#181C32"/>
</svg>
