<svg width="19" height="20" viewBox="0 0 19 20" fill="none" xmlns="http://www.w3.org/2000/svg">
<path fill-rule="evenodd" clip-rule="evenodd" d="M9.24494 3.52802H2.22234C0.994497 3.52802 0 4.58252 0 5.88147V17.6465C0 18.9466 0.994497 20 2.22234 20H14.4452C15.6731 20 16.6676 18.9466 16.6676 17.6465V9.03497L12.3184 13.6397C11.9386 14.0458 11.444 14.3264 10.9006 14.4441L7.92153 15.0753C5.97698 15.4864 4.26356 13.6719 4.65247 11.614L5.24806 8.45939C5.35584 7.89047 5.6203 7.36711 6.0081 6.95709L9.24494 3.52802Z" fill="#FF9800"/>
<path fill-rule="evenodd" clip-rule="evenodd" d="M18.7188 1.46346C18.6065 1.17903 18.4418 0.918209 18.2333 0.694528C18.0282 0.475771 17.781 0.300768 17.5065 0.180056C17.2362 0.0613126 16.944 0 16.6487 0C16.3534 0 16.0613 0.0613126 15.7909 0.180056C15.5164 0.300768 15.2692 0.475771 15.0642 0.694528L14.4575 1.33678L17.6266 4.69252L18.2333 4.04915C18.444 3.82717 18.609 3.5659 18.7188 3.28022C18.9477 2.69626 18.9477 2.04741 18.7188 1.46346ZM16.0565 6.35594L12.8863 2.9991L7.57824 8.62162C7.49993 8.70506 7.44711 8.80916 7.42601 8.92163L6.83043 12.0774C6.75265 12.4885 7.096 12.8507 7.48379 12.7685L10.464 12.1385C10.5724 12.1143 10.6711 12.0582 10.7473 11.9774L16.0565 6.35594Z" fill="#FF9800"/>
</svg>
