<svg width="100" height="100" viewBox="0 0 100 100" fill="none" xmlns="http://www.w3.org/2000/svg">
<rect x="0.5" y="0.5" width="99" height="99" rx="7.5" fill="white" stroke="#CCCCCC"/>
<path d="M82.7624 53.325C79.7566 47.1304 74.2612 42.8861 66.975 39.5749C67.0826 36.6407 66.3443 33.7375 64.8484 31.2111C63.3524 28.6847 61.1616 26.6416 58.5372 25.3252C45.9943 15.8868 12.1906 35.6855 15.1877 51.1878C15.1499 55.8875 19.3374 64.5 25.0999 66.5375C27.5449 67.2872 30.093 67.6458 32.6499 67.6C34.3665 67.5981 36.0802 67.4602 37.7749 67.1875C37.0749 66.4 36.4375 65.6375 35.8749 64.9125C33.8398 62.1289 31.8513 59.2697 31.2749 55.725C27.9797 56.4751 24.537 56.2441 21.3715 55.0606C22.8656 49.7239 27.8909 43.605 34.5978 39.0027C43.797 32.6886 54.3017 30.5243 59.0314 33.9661C59.1035 34.0243 59.2155 34.0371 59.275 34.0874C59.0781 35.0556 58.7632 35.996 58.3374 36.8875C53.0244 35.9524 48.7575 36.0432 44.4499 38.1249C42.3727 38.6295 32.6492 44.0078 33.7377 55.2126C34.3231 58.8417 36.4623 61.5529 38.7248 64.45C44.3091 70.7899 50.9009 75.5438 63.7498 76.9628C75.7311 78.132 90.6964 68.6009 82.7624 53.325ZM33.1829 36.9409C26.2229 41.7179 21.0862 47.8642 19.1945 53.6065C18.3529 52.767 17.7954 51.685 17.6 50.5125C16.0148 39.0854 37.6063 24.9257 49.975 25.4253C54.5031 25.483 58.6942 26.8321 59.41 31.2635C53.427 28.0449 42.9209 30.2591 33.1829 36.9409ZM44.3124 50.8125L44.1499 50.9C43.6459 50.1196 43.2308 49.2853 42.9124 48.4125C45.0288 47.5999 47.2836 47.2092 49.5499 47.2625C47.8932 48.5722 46.1427 49.7587 44.3124 50.8125ZM52.2749 44.9125C48.944 44.5055 45.5641 44.8558 42.3874 45.9375C42.306 45.0098 42.4608 44.0767 42.8374 43.225C45.4471 38.3969 51.8513 38.5124 57.0748 39.1998C55.718 41.2957 54.1056 43.2147 52.2749 44.9125ZM57.4749 61.475C56.3749 60.975 55.2749 60.425 54.2249 59.8375C56.1211 58.4236 57.8827 56.8377 59.4874 55.1C60.8652 53.6275 62.1233 52.0475 63.2499 50.375C70.5624 53.5625 76.1124 58.6 77.5499 63.325C72.9124 65.55 65.0249 64.85 57.4749 61.475ZM80.8374 60.2C80.5528 60.8163 80.1638 61.3788 79.6874 61.8625C77.7499 56.7 72.0874 51.575 64.5374 48.2125C65.5675 46.3302 66.2932 44.2967 66.6874 42.1875C73.4519 45.3182 83.369 52.7795 80.8374 60.2Z" fill="#FFC107"/>
</svg>
