<svg width="100" height="100" viewBox="0 0 100 100" fill="none" xmlns="http://www.w3.org/2000/svg">
<rect x="0.5" y="0.5" width="99" height="99" rx="7.5" fill="white" stroke="#CCCCCC"/>
<path d="M81.539 71.7002L73.3534 71.6077C78.4671 65.9461 81.4052 58.5755 81.4979 50.8678C81.7013 33.5012 67.7356 19.2074 50.3674 19.0023C48.2671 18.9305 46.8486 20.5301 46.8264 22.4613C46.8042 24.3958 48.3525 25.9783 50.2854 26.0023C63.7947 26.1595 74.6569 37.2781 74.498 50.7858C74.4213 57.159 71.8331 63.2258 67.3793 67.7234L67.4998 57.5396C67.522 55.6085 65.9737 54.0226 64.0408 53.9986C62.002 53.8688 60.5204 55.5265 60.4999 57.4576L60.2931 74.9575C60.2828 75.8871 60.64 76.7792 61.2894 77.4457C61.9388 78.1088 62.8241 78.4882 63.7537 78.4985L81.4603 78.7001H81.4997C83.4154 78.7001 84.9774 77.1586 84.9996 75.2412C85.0218 73.3066 83.4718 71.7241 81.539 71.7002Z" fill="#4E71FF"/>
<path d="M49.7145 74.9952C36.2051 74.838 25.3429 63.7194 25.5018 50.2117C25.5785 43.8385 28.1668 37.7716 32.6205 33.2741L32.5001 43.4544C32.4778 45.3855 34.0262 46.9715 35.959 46.9954H36.0017C37.9141 46.9954 39.4778 45.4539 39.5 43.5364L39.7068 26.0366C39.717 25.1069 39.3599 24.2148 38.7105 23.5483C38.061 22.8852 37.1758 22.5058 36.2461 22.4956L18.5395 22.2939C16.6289 22.229 15.0225 23.8217 15.0002 25.7529C14.978 27.6874 16.5281 29.2699 18.4609 29.2939L26.6492 29.3864C21.5336 35.0488 18.5946 42.4205 18.5019 50.1296C18.2985 67.4962 32.2642 81.7901 49.6325 81.9951H49.6735C51.5875 81.9951 53.1512 80.4536 53.1734 78.5362C53.1957 76.6016 51.6473 75.0191 49.7145 74.9952Z" fill="#8DD8FF"/>
</svg>
