<svg width="100" height="100" viewBox="0 0 100 100" fill="none" xmlns="http://www.w3.org/2000/svg">
<rect x="0.5" y="0.5" width="99" height="99" rx="7.5" fill="white" stroke="#CCCCCC"/>
<g clip-path="url(#clip0_273_2529)">
<path d="M77.5799 37.5781C77.1199 38.1756 76.4094 38.5264 75.6554 38.5282C75.1172 38.5265 74.5946 38.3466 74.1694 38.0166L45.4723 15.9457C44.5964 15.2714 43.3763 15.2714 42.5003 15.9457L13.8033 38.0166C12.6897 38.7717 11.1749 38.481 10.4199 37.3676C9.72987 36.3499 9.90633 34.9776 10.8313 34.1676L39.5283 12.0967C42.1561 10.0739 45.8166 10.0739 48.4444 12.0967L77.1414 34.1676C78.2019 34.9898 78.398 36.5146 77.5799 37.5781ZM17.1895 38.5282V70.1973C17.1895 74.2335 20.4614 77.5055 24.4977 77.5055H36.6781C38.0236 77.5055 39.1142 76.4149 39.1142 75.0694V58.0169H48.8585V75.0694C48.8585 76.4149 49.9491 77.5055 51.2946 77.5055H63.475C67.5113 77.5055 70.7832 74.2335 70.7832 70.1973V38.5282L43.9863 17.8702L17.1895 38.5282Z" fill="#8DD8FF"/>
</g>
<circle cx="72.9788" cy="72.9786" r="17.0213" fill="white"/>
<path d="M80.3548 64.3545C78.3013 62.5932 75.6842 61.6269 72.9789 61.6311C66.7116 61.6311 61.6313 66.7114 61.6313 72.9786C61.6313 79.2459 66.7116 84.3262 72.9789 84.3262C75.6842 84.3304 78.3013 83.3641 80.3548 81.6027" stroke="#FF0000" stroke-width="1.5" stroke-linecap="round" stroke-linejoin="round"/>
<path d="M79.7875 68.4397C79.7875 68.4397 84.3265 71.7827 84.3265 72.9787C84.3265 74.1747 79.7875 77.5177 79.7875 77.5177M83.7591 72.9787H69.5747" stroke="#FF0000" stroke-width="1.5" stroke-linecap="round" stroke-linejoin="round"/>
<defs>
<clipPath id="clip0_273_2529">
<rect width="68.0851" height="68.0851" fill="white" transform="translate(10 10)"/>
</clipPath>
</defs>
</svg>
