<svg width="100" height="100" viewBox="0 0 100 100" fill="none" xmlns="http://www.w3.org/2000/svg">
<rect x="0.5" y="0.5" width="99" height="99" rx="7.5" fill="white" stroke="#CCCCCC"/>
<path fill-rule="evenodd" clip-rule="evenodd" d="M15 40.6575V66.7898C15 68.6135 15.7364 70.363 17.0496 71.6531C18.3628 72.9432 20.1436 73.6667 22 73.6667C34.656 73.6667 65.344 73.6667 78 73.6667C79.8564 73.6667 81.6372 72.9432 82.9504 71.6531C84.2636 70.363 85 68.6135 85 66.7898V40.6575H15ZM67.7324 58.5457C71.252 58.5457 74.2956 59.2939 75.8104 60.3007C76.8296 60.9747 77.2888 61.8136 77.2888 62.6279C77.2888 63.4393 76.8296 64.2783 75.8104 64.955C74.2956 65.959 71.252 66.7072 67.7324 66.7072C64.2128 66.7072 61.172 65.959 59.6544 64.955C58.638 64.2783 58.1788 63.4393 58.1788 62.6279C58.1788 61.8136 58.638 60.9747 59.6544 60.3007C61.172 59.2939 64.2128 58.5457 67.7324 58.5457ZM44.4 64.7459H22.7616C21.9888 64.7459 21.3616 64.1298 21.3616 63.3706C21.3616 62.6114 21.9888 61.9952 22.7616 61.9952H44.4C45.1728 61.9952 45.8 62.6114 45.8 63.3706C45.8 64.1298 45.1728 64.7459 44.4 64.7459ZM44.4 57.9681H22.7616C21.9888 57.9681 21.3616 57.3519 21.3616 56.5927C21.3616 55.8335 21.9888 55.2173 22.7616 55.2173H44.4C45.1728 55.2173 45.8 55.8335 45.8 56.5927C45.8 57.3519 45.1728 57.9681 44.4 57.9681ZM67.7324 45.9803C70.7144 45.9803 73.1336 48.3597 73.1336 51.2865C73.1336 54.216 70.7144 56.5927 67.7324 56.5927C64.7532 56.5927 62.3312 54.216 62.3312 51.2865C62.3312 48.3597 64.7532 45.9803 67.7324 45.9803ZM44.4 51.1929H22.7616C21.9888 51.1929 21.3616 50.574 21.3616 49.8176C21.3616 49.0584 21.9888 48.4422 22.7616 48.4422H44.4C45.1728 48.4422 45.8 49.0584 45.8 49.8176C45.8 50.574 45.1728 51.1929 44.4 51.1929ZM85 37.9068V33.8769C85 32.0531 84.2636 30.3037 82.9504 29.0136C81.6372 27.7235 79.8564 27 78 27H22C20.1436 27 18.3628 27.7235 17.0496 29.0136C15.7364 30.3037 15 32.0531 15 33.8769V37.9068H85ZM68.8384 33.8797H31.1616C30.3888 33.8797 29.7616 33.2635 29.7616 32.5043C29.7616 31.7451 30.3888 31.1289 31.1616 31.1289H68.8384C69.6112 31.1289 70.2384 31.7451 70.2384 32.5043C70.2384 33.2635 69.6112 33.8797 68.8384 33.8797Z" fill="#F48FB1"/>
</svg>
