<svg width="100" height="100" viewBox="0 0 100 100" fill="none" xmlns="http://www.w3.org/2000/svg">
<rect x="0.5" y="0.5" width="99" height="99" rx="7.5" fill="white" stroke="#CCCCCC"/>
<path d="M27.0454 50.0675C19.3977 50.0675 13.1704 56.2948 13.1704 63.9425V67.6016C13.1704 68.1925 13.6477 68.6698 14.2386 68.6698H25.909V67.0448C25.909 60.8175 28.7159 55.2379 33.1136 51.4879C31.284 50.5902 29.2272 50.0675 27.0454 50.0675ZM65.6818 50.0675C63.5 50.0675 61.4431 50.5902 59.6136 51.4879C64.0113 55.2379 66.8181 60.8175 66.8181 67.0448V68.6698H78.4886C79.0795 68.6698 79.5568 68.1925 79.5568 67.6016V63.9425C79.5568 56.2948 73.3295 50.0675 65.6818 50.0675ZM27.0454 33.6016C22.9318 33.6016 19.5795 36.9539 19.5795 41.0789C19.5795 45.2039 22.9318 48.5448 27.0454 48.5448C31.159 48.5448 34.5113 45.1925 34.5113 41.0789C34.5113 36.9652 31.159 33.6016 27.0454 33.6016ZM65.6818 33.6016C61.5681 33.6016 58.2159 36.9539 58.2159 41.0789C58.2159 45.2039 61.5681 48.5448 65.6818 48.5448C69.7954 48.5448 73.1477 45.1925 73.1477 41.0789C73.1477 36.9652 69.7954 33.6016 65.6818 33.6016ZM46.3636 48.8629C36.3409 48.8629 28.1818 57.022 28.1818 67.0448V71.9198C28.1818 72.5448 28.6931 73.0561 29.3181 73.0561H63.409C64.034 73.0561 64.5454 72.5448 64.5454 71.9198V67.0448C64.5454 57.022 56.3863 48.8629 46.3636 48.8629ZM46.3636 26.9539C41.034 26.9539 36.7045 31.2834 36.7045 36.6129C36.7045 41.9425 41.034 46.272 46.3636 46.272C51.6931 46.272 56.0227 41.9311 56.0227 36.6129C56.0227 31.2948 51.6931 26.9539 46.3636 26.9539Z" fill="#5409DA"/>
<rect x="51" y="57" width="40" height="28" rx="4" fill="white"/>
<path fill-rule="evenodd" clip-rule="evenodd" d="M53.6363 65.9018V78.934C53.6363 79.8435 54.0036 80.716 54.6585 81.3594C55.3134 82.0028 56.2014 82.3635 57.1272 82.3635C63.4388 82.3635 78.7429 82.3635 85.0545 82.3635C85.9803 82.3635 86.8684 82.0028 87.5233 81.3594C88.1782 80.716 88.5454 79.8435 88.5454 78.934V65.9018H53.6363ZM79.934 74.8227C81.6893 74.8227 83.2071 75.1959 83.9625 75.6979C84.4708 76.034 84.6998 76.4524 84.6998 76.8585C84.6998 77.2632 84.4708 77.6816 83.9625 78.019C83.2071 78.5197 81.6893 78.8929 79.934 78.8929C78.1788 78.8929 76.6624 78.5197 75.9055 78.019C75.3986 77.6816 75.1696 77.2632 75.1696 76.8585C75.1696 76.4524 75.3986 76.034 75.9055 75.6979C76.6624 75.1959 78.1788 74.8227 79.934 74.8227ZM68.2981 77.9148H57.507C57.1216 77.9148 56.8089 77.6075 56.8089 77.2289C56.8089 76.8503 57.1216 76.543 57.507 76.543H68.2981C68.6835 76.543 68.9963 76.8503 68.9963 77.2289C68.9963 77.6075 68.6835 77.9148 68.2981 77.9148ZM68.2981 74.5346H57.507C57.1216 74.5346 56.8089 74.2274 56.8089 73.8487C56.8089 73.4701 57.1216 73.1628 57.507 73.1628H68.2981C68.6835 73.1628 68.9963 73.4701 68.9963 73.8487C68.9963 74.2274 68.6835 74.5346 68.2981 74.5346ZM79.934 68.5563C81.4212 68.5563 82.6276 69.7429 82.6276 71.2025C82.6276 72.6635 81.4212 73.8487 79.934 73.8487C78.4483 73.8487 77.2404 72.6635 77.2404 71.2025C77.2404 69.7429 78.4483 68.5563 79.934 68.5563ZM68.2981 71.1559H57.507C57.1216 71.1559 56.8089 70.8472 56.8089 70.47C56.8089 70.0914 57.1216 69.7841 57.507 69.7841H68.2981C68.6835 69.7841 68.9963 70.0914 68.9963 70.47C68.9963 70.8472 68.6835 71.1559 68.2981 71.1559ZM88.5454 64.53V62.5203C88.5454 61.6108 88.1782 60.7384 87.5233 60.095C86.8684 59.4516 85.9803 59.0908 85.0545 59.0908H57.1272C56.2014 59.0908 55.3134 59.4516 54.6585 60.095C54.0036 60.7384 53.6363 61.6108 53.6363 62.5203V64.53H88.5454ZM80.4856 62.5217H61.6961C61.3107 62.5217 60.9979 62.2144 60.9979 61.8358C60.9979 61.4572 61.3107 61.1499 61.6961 61.1499H80.4856C80.871 61.1499 81.1838 61.4572 81.1838 61.8358C81.1838 62.2144 80.871 62.5217 80.4856 62.5217Z" fill="#00AFAF"/>
</svg>
