<svg width="100" height="100" viewBox="0 0 100 100" fill="none" xmlns="http://www.w3.org/2000/svg">
<rect x="0.5" y="0.5" width="99" height="99" rx="7.5" fill="white" stroke="#CCCCCC"/>
<rect x="22" y="10" width="57" height="80" rx="4" fill="#BBFBFF"/>
<circle cx="30.5" cy="28.5" r="1.5" fill="#4E71FF"/>
<circle cx="30.5" cy="34.5" r="1.5" fill="#4E71FF"/>
<circle cx="30.5" cy="40.5" r="1.5" fill="#4E71FF"/>
<circle cx="30.5" cy="46.5" r="1.5" fill="#4E71FF"/>
<circle cx="30.5" cy="52.5" r="1.5" fill="#4E71FF"/>
<circle cx="30.5" cy="58.5" r="1.5" fill="#4E71FF"/>
<circle cx="30.5" cy="64.5" r="1.5" fill="#4E71FF"/>
<circle cx="30.5" cy="70.5" r="1.5" fill="#4E71FF"/>
<rect x="35" y="27" width="36" height="3" rx="1.5" fill="#4E71FF"/>
<rect x="35" y="33" width="36" height="3" rx="1.5" fill="#4E71FF"/>
<rect x="35" y="39" width="36" height="3" rx="1.5" fill="#4E71FF"/>
<rect x="35" y="45" width="36" height="3" rx="1.5" fill="#4E71FF"/>
<rect x="35" y="51" width="36" height="3" rx="1.5" fill="#4E71FF"/>
<rect x="35" y="57" width="36" height="3" rx="1.5" fill="#4E71FF"/>
<rect x="35" y="63" width="36" height="3" rx="1.5" fill="#4E71FF"/>
<rect x="35" y="69" width="36" height="3" rx="1.5" fill="#4E71FF"/>
</svg>
