<svg width="100" height="100" viewBox="0 0 100 100" fill="none" xmlns="http://www.w3.org/2000/svg">
<rect x="0.5" y="0.5" width="99" height="99" rx="7.5" fill="white" stroke="#CCCCCC"/>
<g clip-path="url(#clip0_273_2528)">
<path d="M89.4944 37.5781C89.0345 38.1756 88.3239 38.5264 87.5699 38.5282C87.0317 38.5265 86.5092 38.3466 86.0839 38.0166L57.3869 15.9457C56.511 15.2714 55.2908 15.2714 54.4149 15.9457L25.7179 38.0166C24.6043 38.7717 23.0895 38.481 22.3344 37.3676C21.6444 36.3499 21.8209 34.9776 22.7458 34.1676L51.4429 12.0967C54.0706 10.0739 57.7311 10.0739 60.3589 12.0967L89.0559 34.1676C90.1164 34.9898 90.3125 36.5146 89.4944 37.5781ZM29.104 38.5282V70.1973C29.104 74.2336 32.376 77.5055 36.4122 77.5055H48.5926C49.9381 77.5055 51.0287 76.4149 51.0287 75.0694V58.0169H60.773V75.0694C60.773 76.4149 61.8637 77.5055 63.2091 77.5055H75.3895C79.4258 77.5055 82.6978 74.2336 82.6978 70.1973V38.5282L55.9009 17.8702L29.104 38.5282Z" fill="#8DD8FF"/>
</g>
<circle cx="27.0213" cy="72.9786" r="17.0213" fill="white"/>
<path d="M16.8081 68.0266C17.7381 66.1091 19.1893 64.4923 20.9954 63.3612C22.8016 62.2302 24.8898 61.6306 27.0209 61.6311C33.2881 61.6311 38.3684 66.7114 38.3684 72.9786C38.3684 79.2459 33.2881 84.3261 27.0209 84.3261C24.8898 84.3267 22.8016 83.7271 20.9954 82.596C19.1893 81.4649 17.7381 79.8481 16.8081 77.9307" stroke="#4CAF50" stroke-width="1.5" stroke-linecap="round" stroke-linejoin="round"/>
<path d="M25.8861 68.4397C25.8861 68.4397 30.4251 71.7827 30.4251 72.9787C30.4251 74.1747 25.8861 77.5177 25.8861 77.5177M29.8577 72.9787H15.6733" stroke="#4CAF50" stroke-width="1.5" stroke-linecap="round" stroke-linejoin="round"/>
<defs>
<clipPath id="clip0_273_2528">
<rect width="68.0851" height="68.0851" fill="white" transform="translate(21.9146 10)"/>
</clipPath>
</defs>
</svg>
