<svg width="100" height="100" viewBox="0 0 100 100" fill="none" xmlns="http://www.w3.org/2000/svg">
<rect x="0.5" y="0.5" width="99" height="99" rx="7.5" fill="white" stroke="#CCCCCC"/>
<rect x="79" y="24" width="48" height="68" rx="4" transform="rotate(90 79 24)" fill="#BBFBFF"/>
<rect x="29.9102" y="33" width="30" height="3" rx="1.5" fill="#4E71FF"/>
<rect x="18" y="42" width="53.82" height="3" rx="1.5" fill="#4E71FF"/>
<rect x="18" y="48" width="53.82" height="3" rx="1.5" fill="#4E71FF"/>
<rect x="18" y="54" width="53.82" height="3" rx="1.5" fill="#4E71FF"/>
<rect x="18" y="60" width="53.82" height="3" rx="1.5" fill="#4E71FF"/>
<rect x="58.395" y="52.6421" width="31.6049" height="22.716" rx="4" fill="white"/>
<path fill-rule="evenodd" clip-rule="evenodd" d="M60.3851 60.28V70.5397C60.3851 71.2558 60.6742 71.9426 61.1898 72.4491C61.7054 72.9556 62.4045 73.2397 63.1334 73.2397C68.1022 73.2397 80.1506 73.2397 85.1194 73.2397C85.8483 73.2397 86.5474 72.9556 87.063 72.4491C87.5786 71.9426 87.8677 71.2558 87.8677 70.5397V60.28H60.3851ZM81.0883 67.3031C82.4701 67.3031 83.665 67.5968 84.2598 67.9921C84.6599 68.2567 84.8402 68.5861 84.8402 68.9057C84.8402 69.2243 84.6599 69.5537 84.2598 69.8194C83.665 70.2136 82.4701 70.5073 81.0883 70.5073C79.7065 70.5073 78.5126 70.2136 77.9168 69.8194C77.5177 69.5537 77.3375 69.2243 77.3375 68.9057C77.3375 68.5861 77.5177 68.2567 77.9168 67.9921C78.5126 67.5968 79.7065 67.3031 81.0883 67.3031ZM71.9278 69.7373H63.4324C63.129 69.7373 62.8827 69.4954 62.8827 69.1973C62.8827 68.8993 63.129 68.6574 63.4324 68.6574H71.9278C72.2312 68.6574 72.4774 68.8993 72.4774 69.1973C72.4774 69.4954 72.2312 69.7373 71.9278 69.7373ZM71.9278 67.0763H63.4324C63.129 67.0763 62.8827 66.8344 62.8827 66.5363C62.8827 66.2382 63.129 65.9963 63.4324 65.9963H71.9278C72.2312 65.9963 72.4774 66.2382 72.4774 66.5363C72.4774 66.8344 72.2312 67.0763 71.9278 67.0763ZM81.0883 62.3698C82.259 62.3698 83.2088 63.3039 83.2088 64.453C83.2088 65.6032 82.259 66.5363 81.0883 66.5363C79.9186 66.5363 78.9677 65.6032 78.9677 64.453C78.9677 63.3039 79.9186 62.3698 81.0883 62.3698ZM71.9278 64.4163H63.4324C63.129 64.4163 62.8827 64.1733 62.8827 63.8763C62.8827 63.5783 63.129 63.3363 63.4324 63.3363H71.9278C72.2312 63.3363 72.4774 63.5783 72.4774 63.8763C72.4774 64.1733 72.2312 64.4163 71.9278 64.4163ZM87.8677 59.2001V57.6179C87.8677 56.9019 87.5786 56.215 87.063 55.7085C86.5474 55.202 85.8483 54.918 85.1194 54.918H63.1334C62.4045 54.918 61.7054 55.202 61.1898 55.7085C60.6742 56.215 60.3851 56.9019 60.3851 57.6179V59.2001H87.8677ZM81.5225 57.619H66.7303C66.4269 57.619 66.1806 57.3771 66.1806 57.079C66.1806 56.7809 66.4269 56.539 66.7303 56.539H81.5225C81.8259 56.539 82.0722 56.7809 82.0722 57.079C82.0722 57.3771 81.8259 57.619 81.5225 57.619Z" fill="#00AFAF"/>
</svg>
