<svg width="100" height="100" viewBox="0 0 100 100" fill="none" xmlns="http://www.w3.org/2000/svg">
<rect x="0.5" y="0.5" width="99" height="99" rx="7.5" fill="white" stroke="#CCCCCC"/>
<rect x="50.875" y="15" width="39.7059" height="56.25" rx="4" fill="#BBFBFF"/>
<g clip-path="url(#clip0_322_6818)">
<path d="M75.4881 28.7275C75.1643 26.2192 73.1576 24.2695 70.6991 24.1875C70.2593 24.2268 69.9141 24.5425 69.9141 24.9297C69.9141 25.6257 70.5838 25.6797 70.7891 25.6797C71.0838 25.6797 71.2891 25.515 71.2891 25.3672C71.2891 25.2195 71.0838 25.0547 70.7891 25.0547C70.6511 25.0547 70.5391 24.9427 70.5391 24.8047C70.5391 24.6667 70.6511 24.5547 70.7891 24.5547C71.3498 24.5547 71.7891 24.9117 71.7891 25.3672C71.7891 25.8227 71.3498 26.1797 70.7891 26.1797C69.9666 26.1797 69.4141 25.6775 69.4141 24.9297C69.4141 24.6865 69.4921 24.4603 69.6248 24.268C67.5193 24.6772 65.8801 26.481 65.5901 28.7275C64.9873 28.8733 64.5391 29.415 64.5391 30.0625C64.5391 30.822 65.1546 31.4375 65.9141 31.4375H65.9168C66.6661 33.3445 68.4523 34.6877 70.5391 34.6877C72.6258 34.6877 74.4121 33.3448 75.1613 31.4375H75.1641C75.9236 31.4375 76.5391 30.822 76.5391 30.0625C76.5391 29.415 76.0908 28.8733 75.4881 28.7275ZM69.0391 29.6875C69.0391 29.9637 68.8153 30.1875 68.5391 30.1875C68.2628 30.1875 68.0391 29.9637 68.0391 29.6875V29.1875C68.0391 28.9113 68.2628 28.6875 68.5391 28.6875C68.8153 28.6875 69.0391 28.9113 69.0391 29.1875V29.6875ZM71.6553 32.1595C71.3086 32.3415 70.9226 32.4375 70.5391 32.4375C70.1556 32.4375 69.7696 32.3413 69.4228 32.1595C69.3006 32.0955 69.2536 31.9442 69.3178 31.822C69.3821 31.7 69.5333 31.6528 69.6553 31.717C70.2056 32.0058 70.8726 32.0058 71.4228 31.717C71.5456 31.6525 71.6963 31.7 71.7603 31.822C71.8246 31.9442 71.7773 32.0955 71.6553 32.1595ZM73.0391 29.6875C73.0391 29.9637 72.8153 30.1875 72.5391 30.1875C72.2628 30.1875 72.0391 29.9637 72.0391 29.6875V29.1875C72.0391 28.9113 72.2628 28.6875 72.5391 28.6875C72.8153 28.6875 73.0391 28.9113 73.0391 29.1875V29.6875Z" fill="#FFC107"/>
</g>
<rect x="55.5625" y="43.4375" width="29.9536" height="3" rx="1.5" fill="#4E71FF"/>
<rect x="55.5625" y="49.4375" width="29.9536" height="3" rx="1.5" fill="#4E71FF"/>
<rect x="55.5625" y="55.4375" width="29.9536" height="3" rx="1.5" fill="#4E71FF"/>
<rect x="55.5625" y="61.4375" width="29.9536" height="3" rx="1.5" fill="#4E71FF"/>
<rect x="72" y="35.125" width="45" height="62" rx="4" transform="rotate(90 72 35.125)" fill="white"/>
<rect x="70.0947" y="37.125" width="41.0081" height="58.0947" rx="4" transform="rotate(90 70.0947 37.125)" fill="#BBFBFF"/>
<rect x="25.9902" y="44.125" width="30" height="3" rx="1.5" fill="#4E71FF"/>
<rect x="18" y="51.125" width="45.9803" height="3" rx="1.5" fill="#4E71FF"/>
<rect x="18" y="57.125" width="45.9803" height="3" rx="1.5" fill="#4E71FF"/>
<rect x="18" y="63.125" width="45.9803" height="3" rx="1.5" fill="#4E71FF"/>
<rect x="18" y="69.125" width="45.9803" height="3" rx="1.5" fill="#4E71FF"/>
<rect x="55" y="63.125" width="31.6049" height="22.716" rx="4" fill="white"/>
<path fill-rule="evenodd" clip-rule="evenodd" d="M56.9901 70.7629V81.0227C56.9901 81.7387 57.2792 82.4255 57.7948 82.932C58.3104 83.4385 59.0095 83.7226 59.7384 83.7226C64.7072 83.7226 76.7556 83.7226 81.7244 83.7226C82.4532 83.7226 83.1524 83.4385 83.668 82.932C84.1835 82.4255 84.4727 81.7387 84.4727 81.0227V70.7629H56.9901ZM77.6933 77.786C79.0751 77.786 80.27 78.0797 80.8647 78.475C81.2649 78.7396 81.4452 79.069 81.4452 79.3887C81.4452 79.7072 81.2649 80.0366 80.8647 80.3023C80.27 80.6965 79.0751 80.9903 77.6933 80.9903C76.3114 80.9903 75.1176 80.6965 74.5218 80.3023C74.1227 80.0366 73.9424 79.7072 73.9424 79.3887C73.9424 79.069 74.1227 78.7396 74.5218 78.475C75.1176 78.0797 76.3114 77.786 77.6933 77.786ZM68.5328 80.2202H60.0374C59.734 80.2202 59.4877 79.9783 59.4877 79.6803C59.4877 79.3822 59.734 79.1403 60.0374 79.1403H68.5328C68.8362 79.1403 69.0824 79.3822 69.0824 79.6803C69.0824 79.9783 68.8362 80.2202 68.5328 80.2202ZM68.5328 77.5592H60.0374C59.734 77.5592 59.4877 77.3173 59.4877 77.0192C59.4877 76.7211 59.734 76.4792 60.0374 76.4792H68.5328C68.8362 76.4792 69.0824 76.7211 69.0824 77.0192C69.0824 77.3173 68.8362 77.5592 68.5328 77.5592ZM77.6933 72.8527C78.864 72.8527 79.8138 73.7869 79.8138 74.9359C79.8138 76.0861 78.864 77.0192 77.6933 77.0192C76.5236 77.0192 75.5727 76.0861 75.5727 74.9359C75.5727 73.7869 76.5236 72.8527 77.6933 72.8527ZM68.5328 74.8992H60.0374C59.734 74.8992 59.4877 74.6562 59.4877 74.3592C59.4877 74.0612 59.734 73.8193 60.0374 73.8193H68.5328C68.8362 73.8193 69.0824 74.0612 69.0824 74.3592C69.0824 74.6562 68.8362 74.8992 68.5328 74.8992ZM84.4727 69.683V68.1008C84.4727 67.3848 84.1835 66.6979 83.668 66.1914C83.1524 65.6849 82.4532 65.4009 81.7244 65.4009H59.7384C59.0095 65.4009 58.3104 65.6849 57.7948 66.1914C57.2792 66.6979 56.9901 67.3848 56.9901 68.1008V69.683H84.4727ZM78.1275 68.1019H63.3353C63.0319 68.1019 62.7856 67.86 62.7856 67.5619C62.7856 67.2638 63.0319 67.0219 63.3353 67.0219H78.1275C78.4309 67.0219 78.6771 67.2638 78.6771 67.5619C78.6771 67.86 78.4309 68.1019 78.1275 68.1019Z" fill="#F48FB1"/>
<defs>
<clipPath id="clip0_322_6818">
<rect width="12" height="12" fill="white" transform="translate(64.5391 23.4375)"/>
</clipPath>
</defs>
</svg>
