<svg width="100" height="100" viewBox="0 0 100 100" fill="none" xmlns="http://www.w3.org/2000/svg">
<rect x="0.5" y="0.5" width="99" height="99" rx="7.5" fill="white" stroke="#CCCCCC"/>
<path fill-rule="evenodd" clip-rule="evenodd" d="M68.6071 34.978C68.6071 30.0207 66.6767 25.3602 63.1715 21.8548C59.6657 18.349 55.0047 16.4182 50.0475 16.4182C39.8137 16.4182 31.4878 24.7441 31.4878 34.9778V68.7311H68.6071V34.978ZM44.8936 31.7277H55.2015C55.6107 31.7277 55.9425 32.0596 55.9425 32.4688C55.9425 32.878 55.6107 33.2098 55.2015 33.2098H44.8936C44.4844 33.2098 44.1525 32.878 44.1525 32.4688C44.1525 32.0594 44.4844 31.7277 44.8936 31.7277ZM59.7558 47.3963H40.3389C39.9297 47.3963 39.5979 47.0645 39.5979 46.6553C39.5979 46.2461 39.9297 45.9142 40.3389 45.9142H59.7558C60.165 45.9142 60.4969 46.2461 60.4969 46.6553C60.4971 47.0645 60.1652 47.3963 59.7558 47.3963ZM59.7558 40.3033H40.3389C39.9297 40.3033 39.5979 39.9715 39.5979 39.5623C39.5979 39.1531 39.9297 38.8213 40.3389 38.8213H59.7558C60.165 38.8213 60.4969 39.1531 60.4969 39.5623C60.4969 39.9715 60.1652 40.3033 59.7558 40.3033Z" fill="#4E71FF"/>
<path fill-rule="evenodd" clip-rule="evenodd" d="M70.0838 70.2134H30.0113C28.9551 70.2134 28.0957 71.0728 28.0957 72.129V76.7494H71.9992V72.129C71.9992 71.0728 71.14 70.2134 70.0838 70.2134Z" fill="#4E71FF"/>
<path fill-rule="evenodd" clip-rule="evenodd" d="M21.2812 78.2312H78.8143V83.8524H21.2812V78.2312Z" fill="#4E71FF"/>
</svg>
