<svg width="149" height="43" viewBox="0 0 149 43" fill="none" xmlns="http://www.w3.org/2000/svg">
<mask id="mask0_334_6580" style="mask-type:luminance" maskUnits="userSpaceOnUse" x="0" y="24" width="149" height="19">
<path d="M0 24.5784H149V42.5784H0V24.5784Z" fill="white"/>
</mask>
<g mask="url(#mask0_334_6580)">
<mask id="mask1_334_6580" style="mask-type:luminance" maskUnits="userSpaceOnUse" x="-1" y="24" width="151" height="19">
<path d="M149.048 24.344H-0.0185547V42.744H149.048V24.344Z" fill="white"/>
</mask>
<g mask="url(#mask1_334_6580)">
<mask id="mask2_334_6580" style="mask-type:luminance" maskUnits="userSpaceOnUse" x="0" y="24" width="149" height="19">
<path d="M0 24.5784H149V42.5784H0V24.5784Z" fill="white"/>
</mask>
<g mask="url(#mask2_334_6580)">
<path d="M0 24.5784H148.992V42.5784H0V24.5784Z" fill="#364FAB"/>
</g>
</g>
</g>
<path d="M0.532227 22.4625V0H12.1822C14.1926 0 15.9301 0.364583 17.3947 1.09167C18.8614 1.81979 19.9947 2.84167 20.7947 4.15833C21.5968 5.47292 21.9989 7.02812 21.9989 8.825C21.9989 10.6229 21.5968 12.1792 20.7947 13.4958C19.9947 14.8104 18.8666 15.8312 17.4114 16.5583C15.9551 17.2865 14.2447 17.65 12.2781 17.65H9.71139V22.4625H0.532227ZM9.45306 10.975H10.6406C12.1822 10.975 12.9531 10.3021 12.9531 8.95417C12.9531 7.62708 12.1822 6.9625 10.6406 6.9625H9.45306V10.975Z" fill="#4E71FF"/>
<path d="M22.29 22.4625L30.215 0H40.1609L48.0567 22.4625H38.6234L37.8525 19.9292H32.3984L31.6275 22.4625H22.29ZM33.5817 14.5042H36.6942L35.2859 9.1125H34.9942L33.5817 14.5042Z" fill="#4E71FF"/>
<path d="M51.2949 22.4625V0H60.4741V7.02917H60.8574C61.5428 7.02917 62.0408 6.91146 62.3491 6.675C62.6595 6.43958 62.9116 5.99062 63.1033 5.32917L64.6783 0H74.3658L71.4158 8.92083C71.0741 9.92708 70.6574 10.8042 70.1658 11.5542L75.1699 22.4625H64.9033L61.8866 14.9875H60.4741V22.4625H51.2949Z" fill="#4E71FF"/>
<path d="M78.7617 22.4625V0H87.9409V14.2167H95.8034V22.4625H78.7617Z" fill="#4E71FF"/>
<path d="M98.2095 22.4625L106.134 0H116.08L123.976 22.4625H114.543L113.772 19.9292H108.318L107.547 22.4625H98.2095ZM109.501 14.5042H112.614L111.205 9.1125H110.914L109.501 14.5042Z" fill="#4E71FF"/>
<path d="M131.26 22.4625V15.3375L123.526 0H133.472L134.722 3.69167L135.685 7.22083H135.976L136.968 3.69167L138.189 0H148.168L140.435 15.3375V22.4625H131.26Z" fill="#4E71FF"/>
<path d="M5.32227 37.1786V29.8994H8.17227C8.76081 29.8994 9.26914 30.0077 9.69727 30.2244C10.1275 30.439 10.4618 30.7432 10.7014 31.1369C10.94 31.5317 11.0598 31.9952 11.0598 32.5286C11.0598 33.0567 10.94 33.5192 10.7014 33.9161C10.4618 34.3109 10.1275 34.615 9.69727 34.8286C9.26914 35.0432 8.76081 35.1494 8.17227 35.1494H6.97643V37.1786H5.32227ZM6.96393 33.7244H8.03477C8.46497 33.7244 8.79518 33.6234 9.02643 33.4202C9.25977 33.215 9.37643 32.9223 9.37643 32.5411C9.37643 32.1609 9.25977 31.8661 9.02643 31.6577C8.79518 31.4494 8.46497 31.3452 8.03477 31.3452H6.96393V33.7244Z" fill="white"/>
<path d="M11.1016 37.1786L13.9932 29.8994H15.6182L18.5099 37.1786H16.7391L16.2516 35.9202H13.3599L12.8724 37.1786H11.1016ZM13.7849 34.6202H15.8349L14.8057 31.9577L13.7849 34.6202Z" fill="white"/>
<path d="M19.5806 37.1786V29.8994H21.2347V32.6952H21.8556C22.266 32.6952 22.566 32.6307 22.7556 32.4994C22.9472 32.3661 23.1056 32.1307 23.2306 31.7911L23.9139 29.8994H25.7056L24.6972 32.4869C24.6056 32.7234 24.5024 32.9359 24.3889 33.1244C24.2743 33.3109 24.1441 33.4734 23.9972 33.6119L25.9639 37.1786H24.0389L22.4806 34.2244C22.4191 34.2327 22.3576 34.2369 22.2972 34.2369C22.2389 34.2369 22.1743 34.2369 22.1056 34.2369H21.2347V37.1786H19.5806Z" fill="white"/>
<path d="M27.2456 37.1786V29.8994H32.0289V31.2911H28.8873V32.7994H31.7456V34.1827H28.8873V35.7744H32.1414V37.1786H27.2456Z" fill="white"/>
<path d="M35.3977 37.1786V31.4494H33.0894V29.8994H39.3602V31.4494H37.0519V37.1786H35.3977Z" fill="white"/>
<path d="M42.6792 37.1786V29.8994H44.3334V35.6286H47.5125V37.1786H42.6792Z" fill="white"/>
<path d="M47.9902 37.1786L50.8819 29.8994H52.5069L55.3986 37.1786H53.6277L53.1402 35.9202H50.2486L49.7611 37.1786H47.9902ZM50.6736 34.6202H52.7236L51.6944 31.9577L50.6736 34.6202Z" fill="white"/>
<path d="M57.6208 37.1786V34.6286L54.9375 29.8994H56.8208L57.725 31.5827L58.4542 32.9036L59.1708 31.5827L60.0667 29.8994H61.95L59.275 34.6077V37.1786H57.6208Z" fill="white"/>
<path d="M61.4893 37.1786L64.3809 29.8994H66.0059L68.8976 37.1786H67.1268L66.6393 35.9202H63.7476L63.2601 37.1786H61.4893ZM64.1726 34.6202H66.2226L65.1934 31.9577L64.1726 34.6202Z" fill="white"/>
<path d="M69.9688 37.1786V29.8994H71.3729L74.5854 34.3286V29.8994H76.2271V37.1786H74.8229L71.6104 32.7161V37.1786H69.9688Z" fill="white"/>
<path d="M77.2974 37.1786L80.189 29.8994H81.814L84.7057 37.1786H82.9349L82.4474 35.9202H79.5557L79.0682 37.1786H77.2974ZM79.9807 34.6202H82.0307L81.0015 31.9577L79.9807 34.6202Z" fill="white"/>
<path d="M85.7769 37.1786V29.8994H87.181L90.3935 34.3286V29.8994H92.0352V37.1786H90.631L87.4185 32.7161V37.1786H85.7769Z" fill="white"/>
<path d="M96.4365 37.1786V29.8994H98.0907V32.6952H98.7115C99.1219 32.6952 99.4219 32.6307 99.6115 32.4994C99.8032 32.3661 99.9615 32.1307 100.087 31.7911L100.77 29.8994H102.562L101.553 32.4869C101.462 32.7234 101.358 32.9359 101.245 33.1244C101.13 33.3109 101 33.4734 100.853 33.6119L102.82 37.1786H100.895L99.3365 34.2244C99.2751 34.2327 99.2136 34.2369 99.1532 34.2369C99.0949 34.2369 99.0303 34.2369 98.9615 34.2369H98.0907V37.1786H96.4365Z" fill="white"/>
<path d="M107.177 37.3245C106.421 37.3245 105.75 37.1641 105.165 36.8412C104.578 36.5193 104.12 36.0735 103.79 35.5037C103.461 34.9349 103.298 34.2787 103.298 33.537C103.298 32.7953 103.461 32.1412 103.79 31.5745C104.12 31.0057 104.578 30.5599 105.165 30.237C105.75 29.9151 106.421 29.7537 107.177 29.7537C107.941 29.7537 108.612 29.9151 109.194 30.237C109.777 30.5599 110.235 31.0057 110.569 31.5745C110.902 32.1412 111.069 32.7953 111.069 33.537C111.069 34.2787 110.902 34.9349 110.569 35.5037C110.235 36.0735 109.777 36.5193 109.194 36.8412C108.612 37.1641 107.941 37.3245 107.177 37.3245ZM104.985 33.537C104.985 33.9766 105.078 34.362 105.265 34.6953C105.45 35.0266 105.708 35.286 106.04 35.4745C106.37 35.661 106.749 35.7537 107.177 35.7537C107.616 35.7537 107.999 35.661 108.327 35.4745C108.657 35.286 108.915 35.0266 109.098 34.6953C109.281 34.362 109.373 33.9766 109.373 33.537C109.373 33.1016 109.281 32.7182 109.098 32.387C108.915 32.0537 108.657 31.7943 108.327 31.6078C107.999 31.4193 107.616 31.3245 107.177 31.3245C106.749 31.3245 106.37 31.4193 106.04 31.6078C105.708 31.7943 105.45 32.0537 105.265 32.387C105.078 32.7182 104.985 33.1016 104.985 33.537Z" fill="white"/>
<path d="M112.494 37.1786V29.8994H113.898L116.486 33.6744L119.065 29.8994H120.461V37.1786H118.815V32.7994L117.048 35.3786H115.902L114.136 32.7911V37.1786H112.494Z" fill="white"/>
<path d="M122.312 37.1786V29.8994H125.162C125.751 29.8994 126.259 30.0077 126.687 30.2244C127.117 30.439 127.452 30.7432 127.691 31.1369C127.93 31.5317 128.05 31.9952 128.05 32.5286C128.05 33.0567 127.93 33.5192 127.691 33.9161C127.452 34.3109 127.117 34.615 126.687 34.8286C126.259 35.0432 125.751 35.1494 125.162 35.1494H123.966V37.1786H122.312ZM123.954 33.7244H125.025C125.455 33.7244 125.785 33.6234 126.016 33.4202C126.25 33.215 126.366 32.9223 126.366 32.5411C126.366 32.1609 126.25 31.8661 126.016 31.6577C125.785 31.4494 125.455 31.3452 125.025 31.3452H123.954V33.7244Z" fill="white"/>
<path d="M129.332 37.1786V29.8994H130.986V35.6286H134.165V37.1786H129.332Z" fill="white"/>
<path d="M135.426 37.1786V29.8994H137.08V37.1786H135.426Z" fill="white"/>
<path d="M140.677 37.1786V31.4494H138.369V29.8994H144.639V31.4494H142.331V37.1786H140.677Z" fill="white"/>
</svg>
